<svg width="170" height="50" viewBox="0 0 170 50" fill="none" xmlns="http://www.w3.org/2000/svg">
<rect width="170" height="50" fill="url(#paint0_linear_2_399)"/>
<path d="M54.4961 18.2031V31H52.0791V20.1104H46.665V31H44.248V18.2031H54.4961ZM56.3945 26.3418V26.1572C56.3945 25.46 56.4941 24.8184 56.6934 24.2324C56.8926 23.6406 57.1826 23.1279 57.5635 22.6943C57.9443 22.2607 58.4102 21.9238 58.9609 21.6836C59.5117 21.4375 60.1387 21.3145 60.8418 21.3145C61.5566 21.3145 62.1895 21.4375 62.7402 21.6836C63.2969 21.9238 63.7656 22.2607 64.1465 22.6943C64.5273 23.1279 64.8174 23.6406 65.0166 24.2324C65.2158 24.8184 65.3154 25.46 65.3154 26.1572V26.3418C65.3154 27.0332 65.2158 27.6748 65.0166 28.2666C64.8174 28.8525 64.5273 29.3652 64.1465 29.8047C63.7656 30.2383 63.2998 30.5752 62.749 30.8154C62.1982 31.0557 61.5684 31.1758 60.8594 31.1758C60.1562 31.1758 59.5264 31.0557 58.9697 30.8154C58.4131 30.5752 57.9443 30.2383 57.5635 29.8047C57.1826 29.3652 56.8926 28.8525 56.6934 28.2666C56.4941 27.6748 56.3945 27.0332 56.3945 26.3418ZM58.7148 26.1572V26.3418C58.7148 26.7578 58.7559 27.1475 58.8379 27.5107C58.9199 27.874 59.0459 28.1934 59.2158 28.4688C59.3857 28.7441 59.6055 28.9609 59.875 29.1191C60.1504 29.2715 60.4785 29.3477 60.8594 29.3477C61.2344 29.3477 61.5566 29.2715 61.8262 29.1191C62.0957 28.9609 62.3154 28.7441 62.4854 28.4688C62.6611 28.1934 62.79 27.874 62.8721 27.5107C62.9541 27.1475 62.9951 26.7578 62.9951 26.3418V26.1572C62.9951 25.7471 62.9541 25.3633 62.8721 25.0059C62.79 24.6426 62.6611 24.3232 62.4854 24.0479C62.3154 23.7666 62.0928 23.5469 61.8174 23.3887C61.5479 23.2246 61.2227 23.1426 60.8418 23.1426C60.4668 23.1426 60.1445 23.2246 59.875 23.3887C59.6055 23.5469 59.3857 23.7666 59.2158 24.0479C59.0459 24.3232 58.9199 24.6426 58.8379 25.0059C58.7559 25.3633 58.7148 25.7471 58.7148 26.1572ZM67.0205 21.4902H69.3496V29.1719H72.1709V21.4902H74.5088V29.1719H77.3301V21.4902H79.6504V31H67.0205V21.4902ZM84.6074 29.9453L87.1562 21.4902H89.6436L85.8291 32.4414C85.7412 32.6758 85.627 32.9307 85.4863 33.2061C85.3516 33.4814 85.1699 33.7422 84.9414 33.9883C84.7129 34.2402 84.4258 34.4453 84.0801 34.6035C83.7402 34.7617 83.3271 34.8408 82.8408 34.8408C82.6299 34.8408 82.4424 34.8262 82.2783 34.7969C82.1143 34.7676 81.9414 34.7295 81.7598 34.6826V32.9424C81.8184 32.9482 81.8857 32.9512 81.9619 32.9512C82.0439 32.957 82.1143 32.96 82.1729 32.96C82.5127 32.96 82.7939 32.9189 83.0166 32.8369C83.2393 32.7607 83.418 32.6348 83.5527 32.459C83.6934 32.2891 83.8105 32.0664 83.9043 31.791L84.6074 29.9453ZM83.3506 21.4902L85.5039 28.4951L85.8818 30.9473L84.2822 31.2373L80.8457 21.4902H83.3506ZM93.2471 21.4902V31H90.9268V21.4902H93.2471ZM99.4434 21.4902L95.251 27.3262H92.7812L92.4912 25.1992H94.2051L96.5166 21.4902H99.4434ZM96.6572 31L94.0557 26.9219L95.9893 25.709L99.7422 31H96.6572Z" fill="white"/>
<circle cx="112.353" cy="21.3529" r="6.85292" stroke="white" stroke-width="3"/>
<rect x="118.301" y="25.5294" width="12.3018" height="2.50588" rx="1.25294" transform="rotate(45 118.301 25.5294)" fill="white"/>
<defs>
<linearGradient id="paint0_linear_2_399" x1="85.6028" y1="-7.21154" x2="85.6028" y2="82.2115" gradientUnits="userSpaceOnUse">
<stop stop-color="#00FF57"/>
<stop offset="1" stop-color="#0057FF" stop-opacity="0"/>
</linearGradient>
</defs>
</svg>
