<svg width="286" height="66" viewBox="0 0 286 66" fill="none" xmlns="http://www.w3.org/2000/svg">
<rect x="39" y="12.6602" width="10" height="2" rx="1" transform="rotate(-120 39 12.6602)" fill="#9F9F9F"/>
<rect x="34" y="12.6602" width="10" height="2" rx="1" transform="rotate(-120 34 12.6602)" fill="#707070"/>
<rect y="15" width="80" height="40" rx="5" fill="#E3CE0E"/>
<rect x="18" y="11" width="52" height="8" rx="4" fill="#E3CE0E"/>
<rect x="4" y="23" width="20" height="17" rx="2" fill="#C0D6FF"/>
<rect x="26" y="23" width="20" height="17" rx="2" fill="#C0D6FF"/>
<rect x="48" y="23" width="20" height="17" rx="2" fill="#C0D6FF"/>
<rect y="43" width="4" height="9" rx="1" fill="#FF9C55"/>
<rect y="41" width="4" height="4" rx="1" fill="#FF5555"/>
<rect x="76" y="43" width="4" height="5" rx="1" fill="#FF9C55"/>
<rect x="70" y="20" width="10" height="20" rx="2" fill="#C0D6FF"/>
<rect x="76" y="41" width="4" height="4" rx="1" fill="#FF9C55"/>
<circle cx="20" cy="55" r="10" fill="#212D34"/>
<circle cx="20" cy="55" r="3" fill="white"/>
<circle cx="60" cy="55" r="10" fill="#212D34"/>
<circle cx="60" cy="55" r="3" fill="white"/>
<rect x="103" y="16" width="80" height="40" rx="5" fill="#E3CE0E"/>
<rect x="107" y="24" width="20" height="10" rx="2" fill="#C0D6FF"/>
<rect x="129" y="24" width="20" height="10" rx="2" fill="#C0D6FF"/>
<rect x="151" y="24" width="20" height="10" rx="2" fill="#C0D6FF"/>
<rect x="103" y="44" width="4" height="9" rx="1" fill="#C4C4C4"/>
<rect x="103" y="42" width="4" height="4" rx="1" fill="#FF5555"/>
<rect x="179" y="44" width="4" height="5" rx="1" fill="#FF5555"/>
<rect x="173" y="21" width="10" height="20" rx="2" fill="#C0D6FF"/>
<rect x="179" y="42" width="4" height="4" rx="1" fill="#FF9C55"/>
<circle cx="118" cy="56" r="10" fill="#212D34"/>
<circle cx="118" cy="56" r="3" fill="white"/>
<circle cx="168" cy="56" r="10" fill="#212D34"/>
<circle cx="168" cy="56" r="3" fill="white"/>
<circle cx="219" cy="57" r="8" fill="#212D34"/>
<circle cx="219" cy="57" r="6" fill="#9F9F9F"/>
<circle cx="274" cy="57" r="8" fill="#212D34"/>
<circle cx="274" cy="57" r="6" fill="#9F9F9F"/>
<rect x="213" y="15" width="65" height="4" rx="2" fill="#9F9F9F"/>
<rect x="245" y="16.6602" width="10" height="2" rx="1" transform="rotate(-120 245 16.6602)" fill="#9F9F9F"/>
<rect x="245" y="15.6602" width="10" height="2" rx="1" transform="rotate(-60 245 15.6602)" fill="#9F9F9F"/>
<rect x="240" y="8.66025" width="10" height="2" rx="1" transform="rotate(-60 240 8.66025)" fill="#9F9F9F"/>
<rect x="250" y="9.66025" width="10" height="2" rx="1" transform="rotate(-120 250 9.66025)" fill="#9F9F9F"/>
<rect x="206" y="18" width="80" height="40" rx="5" fill="#E3CE0E"/>
<rect x="206" y="41" width="80" height="17" rx="5" fill="#ED7171"/>
<rect x="209" y="40" width="20" height="10" rx="2" transform="rotate(-90 209 40)" fill="#C0D6FF"/>
<rect x="222" y="40" width="20" height="10" rx="2" transform="rotate(-90 222 40)" fill="#C0D6FF"/>
<rect x="235" y="40" width="20" height="10" rx="2" transform="rotate(-90 235 40)" fill="#C0D6FF"/>
<rect x="248" y="40" width="20" height="10" rx="2" transform="rotate(-90 248 40)" fill="#C0D6FF"/>
<rect x="261" y="40" width="20" height="10" rx="2" transform="rotate(-90 261 40)" fill="#C0D6FF"/>
<rect x="276" y="40" width="20" height="10" rx="2" transform="rotate(-90 276 40)" fill="#C0D6FF"/>
<rect x="206" y="46" width="4" height="9" rx="1" fill="#C4C4C4"/>
<rect x="282" y="46" width="4" height="9" rx="1" fill="#C4C4C4"/>
<rect x="207" y="27" width="65" height="2" rx="1" fill="#E3CE0E"/>
</svg>
