<svg width="572" height="205" viewBox="0 0 572 205" fill="none" xmlns="http://www.w3.org/2000/svg">
<rect y="32.7054" width="258.857" height="163.527" rx="10" fill="#95D186"/>
<rect y="67.0461" width="258.857" height="89.9398" rx="10" fill="#686868"/>
<rect x="13.1067" y="107.928" width="49.15" height="8.17635" rx="2" fill="white"/>
<rect width="16.3604" height="4.9127" rx="2" transform="matrix(0.500702 -0.86562 0.86643 0.499298 40.9585 184.23)" fill="#338020"/>
<rect width="16.3604" height="4.9127" rx="2" transform="matrix(0.500702 -0.86562 0.86643 0.499298 32.7664 184.23)" fill="#338020"/>
<rect width="16.3604" height="4.9127" rx="2" transform="matrix(0.500702 -0.86562 0.86643 0.499298 49.1497 184.23)" fill="#338020"/>
<rect width="16.3604" height="4.9127" rx="2" transform="matrix(0.500702 -0.86562 0.86643 0.499298 209.707 184.23)" fill="#338020"/>
<rect width="16.3604" height="4.9127" rx="2" transform="matrix(0.500702 -0.86562 0.86643 0.499298 201.515 184.23)" fill="#338020"/>
<rect width="16.3604" height="4.9127" rx="2" transform="matrix(0.500702 -0.86562 0.86643 0.499298 217.898 184.23)" fill="#338020"/>
<rect width="16.3604" height="4.9127" rx="2" transform="matrix(0.500702 -0.86562 0.86643 0.499298 124.513 184.23)" fill="#338020"/>
<rect width="16.3604" height="4.9127" rx="2" transform="matrix(0.500702 -0.86562 0.86643 0.499298 116.321 184.23)" fill="#338020"/>
<rect width="16.3604" height="4.9127" rx="2" transform="matrix(0.500702 -0.86562 0.86643 0.499298 132.705 184.23)" fill="#338020"/>
<rect width="16.3604" height="4.9127" rx="2" transform="matrix(0.500702 -0.86562 0.86643 0.499298 181.855 58.3141)" fill="#338020"/>
<rect width="16.3604" height="4.9127" rx="2" transform="matrix(0.500702 -0.86562 0.86643 0.499298 173.663 58.3141)" fill="#338020"/>
<rect width="16.3604" height="4.9127" rx="2" transform="matrix(0.500702 -0.86562 0.86643 0.499298 190.047 58.3141)" fill="#338020"/>
<rect x="73.7256" y="107.928" width="49.15" height="8.17635" rx="2" fill="white"/>
<rect x="134.343" y="107.928" width="49.15" height="8.17635" rx="2" fill="white"/>
<rect x="194.961" y="107.928" width="49.15" height="8.17635" rx="2" fill="white"/>
<rect width="16.3604" height="3.27514" rx="1.63757" transform="matrix(-0.500702 -0.86562 0.86643 -0.499298 78.6401 15.7971)" fill="#9F9F9F"/>
<rect width="16.3604" height="3.27514" rx="1.63757" transform="matrix(-0.500702 -0.86562 0.86643 -0.499298 70.449 15.7971)" fill="#707070"/>
<rect x="14.7454" y="19.623" width="131.067" height="65.4108" rx="5" fill="#D7C202"/>
<rect x="44.2354" y="13.0821" width="85.1934" height="13.0822" rx="5" fill="#D7C202"/>
<rect x="21.2988" y="32.7054" width="32.7667" height="27.7996" rx="2" fill="#B6CCF5"/>
<rect x="57.342" y="32.7054" width="32.7667" height="27.7996" rx="2" fill="#B6CCF5"/>
<rect x="93.3855" y="32.7054" width="32.7667" height="27.7996" rx="2" fill="#B6CCF5"/>
<rect x="14.7454" y="65.4108" width="6.55333" height="14.7174" rx="1" fill="#EE8B44"/>
<rect x="14.7454" y="62.1403" width="6.55333" height="6.54108" rx="1" fill="#F24848"/>
<rect x="139.259" y="65.4108" width="6.55333" height="8.17635" rx="1" fill="#FF9C55"/>
<rect x="129.429" y="27.7995" width="16.3833" height="32.7054" rx="2" fill="#B6CCF5"/>
<rect x="139.259" y="62.1403" width="6.55333" height="6.54108" rx="1" fill="#EE8B44"/>
<ellipse cx="47.512" cy="85.0341" rx="16.3833" ry="16.3527" fill="#17232A"/>
<ellipse cx="47.5119" cy="85.0343" rx="4.915" ry="4.90581" fill="#E9E9E9"/>
<ellipse cx="113.045" cy="85.0341" rx="16.3833" ry="16.3527" fill="#17232A"/>
<ellipse cx="113.045" cy="85.0343" rx="4.915" ry="4.90581" fill="#E9E9E9"/>
<rect width="131.067" height="65.4108" rx="5" transform="matrix(-1 0 0 1 253.941 68.6814)" fill="#E3CE0E"/>
<rect width="32.7667" height="16.3527" rx="2" transform="matrix(-1 0 0 1 247.388 81.7635)" fill="#C0D6FF"/>
<rect width="32.7667" height="16.3527" rx="2" transform="matrix(-1 0 0 1 211.345 81.7635)" fill="#C0D6FF"/>
<rect width="32.7667" height="16.3527" rx="2" transform="matrix(-1 0 0 1 175.301 81.7635)" fill="#C0D6FF"/>
<rect width="6.55333" height="14.7174" rx="1" transform="matrix(-1 0 0 1 253.941 114.469)" fill="#C4C4C4"/>
<rect width="6.55333" height="6.54108" rx="1" transform="matrix(-1 0 0 1 253.941 111.199)" fill="#FF5555"/>
<rect width="6.55333" height="8.17635" rx="1" transform="matrix(-1 0 0 1 129.428 114.469)" fill="#FF5555"/>
<rect width="16.3833" height="32.7054" rx="2" transform="matrix(-1 0 0 1 139.258 76.8579)" fill="#C0D6FF"/>
<rect width="6.55333" height="6.54108" rx="1" transform="matrix(-1 0 0 1 129.428 111.199)" fill="#FF9C55"/>
<ellipse rx="16.3833" ry="16.3527" transform="matrix(-1 0 0 1 229.366 134.092)" fill="#212D34"/>
<ellipse rx="4.915" ry="4.90581" transform="matrix(-1 0 0 1 229.366 134.092)" fill="white"/>
<ellipse rx="16.3833" ry="16.3527" transform="matrix(-1 0 0 1 147.45 134.092)" fill="#212D34"/>
<ellipse rx="4.915" ry="4.90581" transform="matrix(-1 0 0 1 147.45 134.092)" fill="white"/>
<path d="M302.647 121.053V185.038H291.616V121.053H302.647ZM341.099 121.053L315.171 151.859L300.406 167.504L298.472 156.561L309.019 143.553L327.652 121.053H341.099ZM329.234 185.038L308.184 154.716L315.786 147.201L342.329 185.038H329.234ZM359.468 179.852L372.388 137.489H383.726L364.654 192.289C364.214 193.461 363.643 194.735 362.94 196.112C362.237 197.489 361.314 198.793 360.171 200.023C359.058 201.283 357.666 202.294 355.996 203.055C354.326 203.846 352.305 204.242 349.932 204.242C348.994 204.242 348.086 204.154 347.207 203.978C346.358 203.832 345.552 203.671 344.79 203.495L344.746 195.409C345.039 195.438 345.391 195.468 345.801 195.497C346.24 195.526 346.592 195.541 346.856 195.541C348.614 195.541 350.078 195.321 351.25 194.882C352.422 194.471 353.374 193.798 354.107 192.86C354.868 191.923 355.513 190.663 356.04 189.081L359.468 179.852ZM352.173 137.489L363.467 173.085L365.357 184.247L358.018 186.136L340.747 137.489H352.173ZM401.128 137.489V185.038H390.493V137.489H401.128ZM389.79 125.009C389.79 123.397 390.318 122.064 391.372 121.01C392.456 119.926 393.95 119.384 395.855 119.384C397.73 119.384 399.209 119.926 400.293 121.01C401.377 122.064 401.919 123.397 401.919 125.009C401.919 126.591 401.377 127.909 400.293 128.964C399.209 130.018 397.73 130.546 395.855 130.546C393.95 130.546 392.456 130.018 391.372 128.964C390.318 127.909 389.79 126.591 389.79 125.009ZM428.198 176.644L439.844 137.489H450.83L434.307 185.038H427.451L428.198 176.644ZM419.278 137.489L431.143 176.82L431.714 185.038H424.859L408.247 137.489H419.278Z" fill="url(#paint0_linear_15_3)"/>
<path d="M308.39 23.0913V87.0757H297.448V23.0913H308.39ZM328.473 23.0913V31.8804H277.541V23.0913H328.473ZM343.327 48.5796V87.0757H332.736V39.5269H342.843L343.327 48.5796ZM357.873 39.2192L357.785 49.063C357.14 48.9458 356.437 48.8579 355.675 48.7993C354.943 48.7407 354.21 48.7114 353.478 48.7114C351.662 48.7114 350.065 48.9751 348.688 49.5024C347.311 50.0005 346.154 50.7329 345.216 51.6997C344.308 52.6372 343.605 53.7798 343.107 55.1274C342.609 56.4751 342.316 57.9839 342.228 59.6538L339.811 59.8296C339.811 56.8413 340.104 54.0728 340.69 51.5239C341.276 48.9751 342.155 46.7339 343.327 44.8003C344.528 42.8667 346.022 41.3579 347.809 40.2739C349.625 39.1899 351.72 38.6479 354.093 38.6479C354.738 38.6479 355.426 38.7065 356.159 38.8237C356.92 38.9409 357.492 39.0728 357.873 39.2192ZM389.733 77.5396V54.8638C389.733 53.1646 389.425 51.6997 388.81 50.4692C388.195 49.2388 387.257 48.2866 385.998 47.6128C384.767 46.939 383.214 46.6021 381.339 46.6021C379.611 46.6021 378.117 46.895 376.857 47.481C375.597 48.0669 374.616 48.8579 373.913 49.854C373.209 50.8501 372.858 51.978 372.858 53.2378H362.311C362.311 51.3628 362.765 49.5464 363.673 47.7886C364.582 46.0308 365.9 44.4634 367.628 43.0864C369.357 41.7095 371.422 40.6255 373.825 39.8345C376.227 39.0435 378.922 38.6479 381.911 38.6479C385.485 38.6479 388.649 39.2485 391.403 40.4497C394.186 41.6509 396.369 43.4673 397.951 45.8989C399.562 48.3013 400.368 51.3188 400.368 54.9517V76.0894C400.368 78.2573 400.514 80.2056 400.807 81.9341C401.129 83.6333 401.583 85.1128 402.169 86.3726V87.0757H391.315C390.817 85.9331 390.421 84.4829 390.128 82.7251C389.865 80.938 389.733 79.2095 389.733 77.5396ZM391.271 58.1597L391.359 64.7075H383.756C381.793 64.7075 380.065 64.8979 378.571 65.2788C377.077 65.6304 375.832 66.1577 374.835 66.8608C373.839 67.564 373.092 68.4136 372.594 69.4097C372.096 70.4058 371.847 71.5337 371.847 72.7935C371.847 74.0532 372.14 75.2104 372.726 76.2651C373.312 77.2905 374.162 78.0962 375.275 78.6821C376.417 79.2681 377.794 79.561 379.406 79.561C381.574 79.561 383.463 79.1216 385.075 78.2427C386.715 77.3345 388.004 76.2358 388.942 74.9468C389.879 73.6284 390.377 72.3833 390.436 71.2114L393.864 75.9136C393.512 77.1147 392.912 78.4038 392.062 79.7808C391.212 81.1577 390.099 82.4761 388.722 83.7358C387.375 84.9663 385.749 85.9771 383.844 86.7681C381.969 87.5591 379.801 87.9546 377.34 87.9546C374.235 87.9546 371.466 87.3394 369.035 86.1089C366.603 84.8491 364.699 83.1646 363.322 81.0552C361.945 78.9165 361.256 76.4995 361.256 73.8042C361.256 71.2847 361.725 69.0581 362.663 67.1245C363.629 65.1616 365.036 63.521 366.881 62.2026C368.756 60.8843 371.042 59.8882 373.737 59.2144C376.432 58.5112 379.508 58.1597 382.965 58.1597H391.271ZM421.945 49.6782V87.0757H411.354V39.5269H421.33L421.945 49.6782ZM420.055 61.5435L416.627 61.4995C416.657 58.1304 417.125 55.0396 418.034 52.2271C418.971 49.4146 420.26 46.9976 421.901 44.9761C423.571 42.9546 425.563 41.4019 427.877 40.3179C430.192 39.2046 432.77 38.6479 435.612 38.6479C437.897 38.6479 439.962 38.9702 441.808 39.6147C443.683 40.23 445.28 41.2407 446.598 42.647C447.946 44.0532 448.971 45.8843 449.674 48.1401C450.377 50.3667 450.729 53.106 450.729 56.3579V87.0757H440.094V56.314C440.094 54.0288 439.757 52.2271 439.083 50.9087C438.439 49.561 437.487 48.6089 436.227 48.0522C434.997 47.4663 433.458 47.1733 431.613 47.1733C429.796 47.1733 428.17 47.5542 426.735 48.3159C425.299 49.0776 424.083 50.1177 423.087 51.436C422.121 52.7544 421.374 54.2778 420.846 56.0063C420.319 57.7349 420.055 59.5806 420.055 61.5435ZM488.214 74.1997C488.214 73.145 487.951 72.1929 487.423 71.3433C486.896 70.4644 485.885 69.6733 484.391 68.9702C482.926 68.2671 480.758 67.6226 477.887 67.0366C475.368 66.48 473.053 65.8208 470.944 65.0591C468.864 64.2681 467.077 63.3159 465.583 62.2026C464.088 61.0894 462.931 59.771 462.111 58.2476C461.291 56.7241 460.88 54.9663 460.88 52.9741C460.88 51.0405 461.305 49.2095 462.155 47.481C463.004 45.7524 464.22 44.229 465.802 42.9106C467.384 41.5923 469.303 40.5522 471.559 39.7905C473.844 39.0288 476.393 38.6479 479.206 38.6479C483.19 38.6479 486.603 39.3218 489.445 40.6694C492.316 41.9878 494.513 43.7896 496.037 46.0747C497.56 48.3306 498.322 50.8794 498.322 53.7212H487.731C487.731 52.4614 487.409 51.2896 486.764 50.2056C486.149 49.0923 485.211 48.1987 483.952 47.5249C482.692 46.8218 481.11 46.4702 479.206 46.4702C477.389 46.4702 475.88 46.7632 474.679 47.3491C473.507 47.9058 472.628 48.6382 472.042 49.5464C471.486 50.4546 471.208 51.4507 471.208 52.5347C471.208 53.3257 471.354 54.0435 471.647 54.688C471.969 55.3032 472.497 55.8745 473.229 56.4019C473.961 56.8999 474.958 57.3687 476.217 57.8081C477.506 58.2476 479.118 58.6724 481.051 59.0825C484.684 59.8442 487.804 60.8257 490.412 62.0269C493.048 63.1987 495.07 64.7222 496.476 66.5972C497.882 68.4429 498.585 70.7866 498.585 73.6284C498.585 75.7378 498.131 77.6714 497.223 79.4292C496.344 81.1577 495.055 82.6665 493.356 83.9556C491.657 85.2153 489.621 86.1968 487.248 86.8999C484.904 87.603 482.267 87.9546 479.337 87.9546C475.031 87.9546 471.383 87.1929 468.395 85.6694C465.407 84.1167 463.136 82.1392 461.583 79.7368C460.06 77.3052 459.298 74.7856 459.298 72.1782H469.538C469.655 74.1411 470.197 75.7085 471.164 76.8804C472.16 78.0229 473.39 78.8579 474.855 79.3853C476.349 79.8833 477.887 80.1323 479.469 80.1323C481.374 80.1323 482.97 79.8833 484.259 79.3853C485.548 78.8579 486.53 78.1548 487.204 77.2759C487.877 76.3677 488.214 75.3423 488.214 74.1997ZM519.196 39.5269V87.0757H508.561V39.5269H519.196ZM507.858 27.0464C507.858 25.4351 508.385 24.1021 509.44 23.0474C510.524 21.9634 512.018 21.4214 513.922 21.4214C515.797 21.4214 517.277 21.9634 518.361 23.0474C519.445 24.1021 519.987 25.4351 519.987 27.0464C519.987 28.6284 519.445 29.9468 518.361 31.0015C517.277 32.0562 515.797 32.5835 513.922 32.5835C512.018 32.5835 510.524 32.0562 509.44 31.0015C508.385 29.9468 507.858 28.6284 507.858 27.0464ZM552.594 39.5269V47.2612H525.788V39.5269H552.594ZM533.522 27.8813H544.113V73.936C544.113 75.4009 544.318 76.5288 544.728 77.3198C545.167 78.0815 545.768 78.5942 546.53 78.8579C547.292 79.1216 548.185 79.2534 549.21 79.2534C549.943 79.2534 550.646 79.2095 551.32 79.1216C551.994 79.0337 552.536 78.9458 552.946 78.8579L552.99 86.9438C552.111 87.2075 551.085 87.4419 549.914 87.647C548.771 87.8521 547.453 87.9546 545.958 87.9546C543.527 87.9546 541.374 87.5298 539.499 86.6802C537.624 85.8013 536.159 84.3804 535.104 82.4175C534.049 80.4546 533.522 77.8472 533.522 74.5952V27.8813Z" fill="url(#paint1_linear_15_3)"/>
<defs>
<linearGradient id="paint0_linear_15_3" x1="429.256" y1="102.038" x2="429.225" y2="238.333" gradientUnits="userSpaceOnUse">
<stop stop-color="#00FF57"/>
<stop offset="1" stop-color="#0057FF" stop-opacity="0"/>
</linearGradient>
<linearGradient id="paint1_linear_15_3" x1="419.706" y1="4.07568" x2="419.676" y2="140.371" gradientUnits="userSpaceOnUse">
<stop stop-color="#00FF57"/>
<stop offset="1" stop-color="#0057FF" stop-opacity="0"/>
</linearGradient>
</defs>
</svg>
