<svg width="503" height="389" viewBox="0 0 503 389" fill="none" xmlns="http://www.w3.org/2000/svg">
<rect y="70.4064" width="503" height="318.354" rx="10" fill="#95D186"/>
<rect y="137.261" width="503" height="175.095" rx="10" fill="#686868"/>
<rect x="25.4684" y="216.849" width="95.5063" height="15.9177" rx="2" fill="white"/>
<rect x="79.5886" y="365.394" width="31.8354" height="9.55063" rx="4.77532" transform="rotate(-60 79.5886 365.394)" fill="#338020"/>
<rect x="63.6709" y="365.394" width="31.8354" height="9.55063" rx="4.77532" transform="rotate(-60 63.6709 365.394)" fill="#338020"/>
<rect x="95.5063" y="365.394" width="31.8354" height="9.55063" rx="4.77532" transform="rotate(-60 95.5063 365.394)" fill="#338020"/>
<rect x="407.494" y="365.394" width="31.8354" height="9.55063" rx="4.77532" transform="rotate(-60 407.494 365.394)" fill="#338020"/>
<rect x="391.576" y="365.394" width="31.8354" height="9.55063" rx="4.77532" transform="rotate(-60 391.576 365.394)" fill="#338020"/>
<rect x="423.411" y="365.394" width="31.8354" height="9.55063" rx="4.77532" transform="rotate(-60 423.411 365.394)" fill="#338020"/>
<rect x="241.949" y="365.394" width="31.8354" height="9.55063" rx="4.77532" transform="rotate(-60 241.949 365.394)" fill="#338020"/>
<rect x="226.032" y="365.394" width="31.8354" height="9.55063" rx="4.77532" transform="rotate(-60 226.032 365.394)" fill="#338020"/>
<rect x="257.867" y="365.394" width="31.8354" height="9.55063" rx="4.77532" transform="rotate(-60 257.867 365.394)" fill="#338020"/>
<rect x="353.373" y="120.261" width="31.8354" height="9.55063" rx="4.77532" transform="rotate(-60 353.373 120.261)" fill="#338020"/>
<rect x="337.456" y="120.261" width="31.8354" height="9.55063" rx="4.77532" transform="rotate(-60 337.456 120.261)" fill="#338020"/>
<rect x="369.291" y="120.261" width="31.8354" height="9.55063" rx="4.77532" transform="rotate(-60 369.291 120.261)" fill="#338020"/>
<rect x="143.26" y="216.849" width="95.5063" height="15.9177" rx="2" fill="white"/>
<rect x="261.051" y="216.849" width="95.5063" height="15.9177" rx="2" fill="white"/>
<rect x="378.842" y="216.849" width="95.5063" height="15.9177" rx="2" fill="white"/>
<rect x="152.81" y="37.4893" width="31.8354" height="6.36709" rx="2" transform="rotate(-120 152.81 37.4893)" fill="#9F9F9F"/>
<rect x="136.892" y="37.4893" width="31.8354" height="6.36709" rx="2" transform="rotate(-120 136.892 37.4893)" fill="#707070"/>
<rect x="28.6519" y="44.938" width="254.684" height="127.342" rx="5" fill="#D7C202"/>
<rect x="85.9556" y="32.2039" width="165.544" height="25.4684" rx="5" fill="#D7C202"/>
<rect x="41.386" y="70.4064" width="63.6709" height="54.1203" rx="2" fill="#B6CCF5"/>
<rect x="111.424" y="70.4064" width="63.6709" height="54.1203" rx="2" fill="#B6CCF5"/>
<rect x="181.462" y="70.4064" width="63.6709" height="54.1203" rx="2" fill="#B6CCF5"/>
<rect x="28.6519" y="134.077" width="12.7342" height="28.6519" rx="1" fill="#EE8B44"/>
<rect x="28.6519" y="127.71" width="12.7342" height="12.7342" rx="1" fill="#F24848"/>
<rect x="270.601" y="134.077" width="12.7342" height="15.9177" rx="1" fill="#FF9C55"/>
<rect x="251.5" y="60.8558" width="31.8354" height="63.6709" rx="2" fill="#B6CCF5"/>
<rect x="270.601" y="127.71" width="12.7342" height="12.7342" rx="1" fill="#EE8B44"/>
<circle cx="92.3227" cy="172.28" r="31.8354" fill="#17232A"/>
<circle cx="92.3227" cy="172.28" r="9.55063" fill="#E9E9E9"/>
<circle cx="219.664" cy="172.28" r="31.8354" fill="#17232A"/>
<circle cx="219.664" cy="172.28" r="9.55063" fill="#E9E9E9"/>
<rect x="35.3893" width="95.5063" height="6.36709" rx="2" transform="rotate(4.27629 35.3893 0)" fill="#4B4B4B"/>
<rect x="124.158" y="6.73547" width="95.5063" height="6.36709" rx="2" fill="#4B4B4B"/>
<rect x="213.298" y="6.73547" width="95.5063" height="6.36709" rx="2" fill="#4B4B4B"/>
<rect x="302.437" y="6.73547" width="95.5063" height="6.36709" rx="2" fill="#4B4B4B"/>
<rect x="391.576" y="6.73547" width="95.5063" height="6.36709" rx="2" fill="#4B4B4B"/>
<rect width="254.684" height="127.342" rx="5" transform="matrix(-1 0 0 1 493.449 140.444)" fill="#E3CE0E"/>
<rect width="63.6709" height="31.8354" rx="2" transform="matrix(-1 0 0 1 480.715 165.913)" fill="#C0D6FF"/>
<rect width="63.6709" height="31.8354" rx="2" transform="matrix(-1 0 0 1 410.677 165.913)" fill="#C0D6FF"/>
<rect width="63.6709" height="31.8354" rx="2" transform="matrix(-1 0 0 1 340.639 165.913)" fill="#C0D6FF"/>
<rect width="12.7342" height="28.6519" rx="1" transform="matrix(-1 0 0 1 493.449 229.584)" fill="#C4C4C4"/>
<rect width="12.7342" height="12.7342" rx="1" transform="matrix(-1 0 0 1 493.449 223.216)" fill="#FF5555"/>
<rect width="12.7342" height="15.9177" rx="1" transform="matrix(-1 0 0 1 251.5 229.584)" fill="#FF5555"/>
<rect width="31.8354" height="63.6709" rx="2" transform="matrix(-1 0 0 1 270.601 156.362)" fill="#C0D6FF"/>
<rect width="12.7342" height="12.7342" rx="1" transform="matrix(-1 0 0 1 251.5 223.216)" fill="#FF9C55"/>
<circle r="31.8354" transform="matrix(-1 0 0 1 445.696 267.786)" fill="#212D34"/>
<circle r="9.55063" transform="matrix(-1 0 0 1 445.696 267.786)" fill="white"/>
<circle r="31.8354" transform="matrix(-1 0 0 1 286.519 267.786)" fill="#212D34"/>
<circle r="9.55063" transform="matrix(-1 0 0 1 286.519 267.786)" fill="white"/>
</svg>
