<svg width="300" height="243" viewBox="0 0 300 243" fill="none" xmlns="http://www.w3.org/2000/svg">
<circle cx="48.6" cy="213.092" r="29.9077" fill="#212D34"/>
<circle cx="48.5999" cy="213.092" r="22.4307" fill="#9F9F9F"/>
<circle cx="254.215" cy="213.092" r="29.9077" fill="#212D34"/>
<circle cx="254.215" cy="213.092" r="22.4307" fill="#9F9F9F"/>
<rect x="26.1692" y="56.0769" width="243" height="14.9538" rx="5" fill="#9F9F9F"/>
<rect x="145.8" y="62.2835" width="37.3846" height="7.47692" rx="3.73846" transform="rotate(-120 145.8 62.2835)" fill="#9F9F9F"/>
<rect x="145.8" y="58.5452" width="37.3846" height="7.47692" rx="3.73846" transform="rotate(-60 145.8 58.5452)" fill="#9F9F9F"/>
<rect x="127.108" y="32.376" width="37.3846" height="7.47692" rx="3.73846" transform="rotate(-60 127.108 32.376)" fill="#9F9F9F"/>
<rect x="164.492" y="36.1144" width="37.3846" height="7.47692" rx="3.73846" transform="rotate(-120 164.492 36.1144)" fill="#9F9F9F"/>
<rect y="67.2923" width="299.077" height="149.538" rx="7" fill="#E3CE0E"/>
<rect y="153.277" width="299.077" height="63.5538" rx="7" fill="#ED7171"/>
<rect x="11.2154" y="149.539" width="74.7692" height="37.3846" rx="5" transform="rotate(-90 11.2154 149.539)" fill="#C0D6FF"/>
<rect x="59.8153" y="149.539" width="74.7692" height="37.3846" rx="5" transform="rotate(-90 59.8153 149.539)" fill="#C0D6FF"/>
<rect x="108.415" y="149.539" width="74.7692" height="37.3846" rx="5" transform="rotate(-90 108.415 149.539)" fill="#C0D6FF"/>
<rect x="157.015" y="149.539" width="74.7692" height="37.3846" rx="5" transform="rotate(-90 157.015 149.539)" fill="#C0D6FF"/>
<rect x="205.615" y="149.539" width="74.7692" height="37.3846" rx="5" transform="rotate(-90 205.615 149.539)" fill="#C0D6FF"/>
<rect x="261.692" y="149.539" width="74.7692" height="37.3846" rx="5" transform="rotate(-90 261.692 149.539)" fill="#C0D6FF"/>
<rect y="171.969" width="14.9538" height="33.6461" rx="6" fill="#C4C4C4"/>
<rect x="284.123" y="171.969" width="14.9538" height="33.6461" rx="6" fill="#C4C4C4"/>
<rect x="3.73846" y="100.938" width="243" height="7.47692" rx="2" fill="#E3CE0E"/>
</svg>
